<?xml version="1.0" encoding="UTF-8" standalone="no"?><!DOCTYPE svg PUBLIC "-//W3C//DTD SVG 1.1//EN" "http://www.w3.org/Graphics/SVG/1.1/DTD/svg11.dtd"><svg width="100%" height="100%" viewBox="0 0 1200 600" version="1.1" xmlns="http://www.w3.org/2000/svg" xmlns:xlink="http://www.w3.org/1999/xlink" xml:space="preserve" xmlns:serif="http://www.serif.com/" style="fill-rule:evenodd;clip-rule:evenodd;stroke-linejoin:round;stroke-miterlimit:2;"><path d="M1200,600l-300,0l0,-600l300,0l0,600Zm-900,0l-300,0l0,-600l300,0l0,600Zm311.25,-46.25l-5.625,-107.875c-0.008,-0.182 -0.013,-0.364 -0.013,-0.547c0,-6.514 5.361,-11.875 11.875,-11.875c0.675,0 1.348,0.058 2.013,0.172l107.375,18.875l-14.5,-40c-1.203,-3.255 -0.194,-6.938 2.5,-9.125l117.625,-95.25l-26.5,-12.375c-3.686,-1.742 -5.519,-6.001 -4.25,-9.875l23.25,-71.5l-67.75,14.375c-3.77,0.786 -7.606,-1.211 -9.125,-4.75l-13.125,-30.875l-52.875,56.75c-1.534,1.618 -3.667,2.535 -5.896,2.535c-4.458,0 -8.125,-3.668 -8.125,-8.125c0,-0.515 0.049,-1.029 0.146,-1.535l25.5,-131.5l-40.875,23.625c-1.246,0.73 -2.664,1.115 -4.108,1.115c-3.073,0 -5.893,-1.742 -7.267,-4.49l-41.5,-81.5l-41.5,81.5c-1.374,2.748 -4.194,4.49 -7.267,4.49c-1.444,0 -2.862,-0.385 -4.108,-1.115l-40.875,-23.625l25.5,131.5c0.097,0.506 0.146,1.02 0.146,1.535c0,4.457 -3.667,8.125 -8.125,8.125c-2.229,0 -4.362,-0.917 -5.896,-2.535l-52.875,-56.75l-13.125,30.875c-1.519,3.539 -5.355,5.536 -9.125,4.75l-67.75,-14.375l23.25,71.5c1.269,3.874 -0.564,8.133 -4.25,9.875l-26.5,12.375l117.625,95.25c2.694,2.187 3.703,5.87 2.5,9.125l-14.5,40l107.375,-18.875c0.665,-0.114 1.338,-0.172 2.013,-0.172c6.514,0 11.875,5.361 11.875,11.875c0,0.183 -0.005,0.365 -0.013,0.547l-5.625,107.875l22.5,0Z" style="fill:#fff;fill-rule:nonzero;"/></svg>