<?xml version="1.0" encoding="UTF-8"?>
<svg version="1.1" viewBox="0 0 24 24" xmlns="http://www.w3.org/2000/svg" xmlns:xlink="http://www.w3.org/1999/xlink">
    <path id="icon" d="M20.488,3.515l3.30529e-07,3.3022e-07c-4.68614,-4.68176 -12.2803,-4.67821 -16.9621,0.00792372c-4.68176,4.68614 -4.67821,12.2803 0.00792372,16.9621c4.68304,4.67867 12.2711,4.67867 16.9542,6.60441e-07l8.1857e-09,-8.20533e-09c4.6782,-4.68942 4.6782,-12.2806 3.14158e-07,-16.97Zm-3.779,11.764l6.53558e-08,7.27944e-08c0.368962,0.410957 0.334919,1.04321 -0.0760379,1.41217c-0.378823,0.340112 -0.952699,0.341331 -1.33296,0.00283159l-3.11,-3.11l-6.74744e-10,-6.65814e-10c-0.0981335,-0.0968348 -0.255866,-0.0968348 -0.354,1.33163e-09l-3.109,3.11l3.06772e-08,-2.95958e-08c-0.394781,0.380864 -1.02022,0.380864 -1.415,5.91917e-08l-1.8064e-08,-1.80439e-08c-0.390741,-0.390307 -0.391094,-1.02347 -0.00078662,-1.41421c0.000262073,-0.000262365 0.000524292,-0.000524584 0.000786657,-0.000786656l3.11,-3.109l7.61843e-09,-7.58123e-09c0.0974783,-0.0970023 0.0978641,-0.25466 0.000861863,-0.352138c-0.000286589,-0.000287995 -0.000573882,-0.000575289 -0.000861878,-0.000861878l-3.11,-3.11l-4.99234e-08,-5.4899e-08c-0.371569,-0.408601 -0.341549,-1.04105 0.0670524,-1.41262c0.380452,-0.345971 0.961274,-0.346999 1.34295,-0.0023764l3.109,3.11l-1.76416e-08,-1.76863e-08c0.0975076,0.0977544 0.255799,0.0979545 0.353553,0.000446927c0.000149152,-0.000148776 0.000298116,-0.00029774 0.000446892,-0.000446892l3.11,-3.11l5.41074e-08,-5.40692e-08c0.390741,-0.390465 1.02403,-0.390241 1.4145,0.000500123c0.390465,0.390741 0.390241,1.02403 -0.000500108,1.4145l-3.11,3.11l-5.16984e-09,5.18603e-09c-0.0972627,0.0975674 -0.0972627,0.255433 1.03397e-08,0.353Z" fill="currentColor"></path>
</svg>