<svg xmlns="http://www.w3.org/2000/svg" viewBox="0 0 594.37 110.1">
  <defs>
    <style>
      .cls-1 {
        fill: #000;
      }
    </style>
  </defs>
  <title>Asset 13</title>
  <g id="Layer_2" data-name="Layer 2">
    <g id="Layer_1-2" data-name="Layer 1">
      <path class="cls-1" d="M175.87,88.17v20H96.82v-99h77.1v20h-51.3v20.1h40.8V67.92h-40.8V88.17Z" />
      <path class="cls-1"
        d="M211.73,65.67l-12,14.55v27.9h-25.8v-99h25.8v44l35.4-43.95h28.65l-33.6,40.2,35.4,58.8H236.33Z" />
      <path class="cls-1" d="M364.19,88.17v20H288.74v-99h25.8V88.17Z" />
      <path class="cls-1"
        d="M413.07,85.77h-34.2L372,108.12H346l34.8-99h30.9l34.65,99H419.82Zm-5.4-17.55-7.2-23.7-4.35-15.6h-.3l-4.05,15.45-7.5,23.85Z" />
      <path class="cls-1"
        d="M439.39,9.12h48.15q35.7.15,35.7,26.7a21.92,21.92,0,0,1-5.1,14.7q-5.1,6-15,7.5v.15q11.1,1.5,16.88,7.72a22,22,0,0,1,5.77,15.53q0,12.9-9.15,19.8t-26.85,6.9h-50.4Zm43.5,40.5q14,0,13.95-10.8T482.89,28h-18.6v21.6ZM485.44,90q6.9,0,10.43-2.85t3.52-8.25q0-5.25-3.52-8t-10.43-2.77H464.29V90Z" />
      <path class="cls-1" d="M68.79,108.11H38.49L0,0,30.39,9.11,48.54,69l5.4,19.5,5.25-19.2L77.64,9.11h26.25Z" />
      <path class="cls-1"
        d="M577,12.3q9.38,4.2,17.41,13.65l-13.68,16.8a30.92,30.92,0,0,0-10.92-11,30.22,30.22,0,0,0-15-3.52q-7.34,0-11.28,2.7a8.34,8.34,0,0,0-4,7.2q0,3.75,4.16,6.07t14.17,4.28q19.32,3.75,27.57,10.95t8.25,20.25A26.86,26.86,0,0,1,588.59,96a31.49,31.49,0,0,1-14,10.5,53.83,53.83,0,0,1-20.23,3.6q-15.8,0-25.67-4.13A44.53,44.53,0,0,1,511.6,93.3L524,75.3q5.5,8.1,12.41,11.4A38.31,38.31,0,0,0,553.06,90q7.76,0,11.63-2.33A7.35,7.35,0,0,0,568.57,81q0-3.45-4.16-5.63t-13.89-4.12a99.29,99.29,0,0,1-19.81-6.08,29.3,29.3,0,0,1-12.13-9.52q-4.3-6-4.3-15.3A30.13,30.13,0,0,1,519,23.7a31.14,31.14,0,0,1,13.82-11.48q9.09-4.12,21.5-4.12Q567.57,8.1,577,12.3Z" />
    </g>
  </g>
</svg>