<svg width="100%" height="100%" viewBox="0 0 820 312" version="1.1" xmlns="http://www.w3.org/2000/svg" xmlns:xlink="http://www.w3.org/1999/xlink" xml:space="preserve" xmlns:serif="http://www.serif.com/" style="fill-rule:evenodd;clip-rule:evenodd;stroke-linejoin:round;stroke-miterlimit:2;"><g id="Layer-1" serif:id="Layer 1"><path d="M264.739,87.668l-76.63,216.136l-82.852,-0l-105.257,-295.617l83.109,24.917l49.63,163.651l14.765,53.32l14.355,-52.501l50.448,-164.47l71.777,0l-0.003,0.009l191.474,-0l0,54.55l-140.271,0l-0,54.959l111.561,-0l-0,51.269l-111.561,-0l-0,55.371l140.31,-0l0,-216.149l70.545,0l0,120.174l96.799,-120.174l78.334,0l-91.873,109.921l96.796,160.779l-79.979,-0l-67.265,-116.074l-32.812,39.785l0,76.289l-70.545,-0l0,-0.001l-210.855,0l-0,-216.144Zm555.261,75.588l-55.043,-0l-0,61.358l-40.603,0l0,-61.358l-55.344,-0l-0,-36.696l55.344,-0l0,-61.058l40.603,-0l-0,61.058l55.043,-0l0,36.696Z" style="fill:#fff;fill-rule:nonzero;"/></g></svg>