<?xml version="1.0" encoding="UTF-8"?>
<svg version="1.1" viewBox="0 0 24 24" xmlns="http://www.w3.org/2000/svg" xmlns:xlink="http://www.w3.org/1999/xlink">
    <!--Generated by IJSVG (https://github.com/iconjar/IJSVG)-->
    <g stroke-linecap="round" stroke-width="1.5" stroke="#FFF" fill="none" stroke-linejoin="round">
        <path d="M13.8562,7.51884c1.02513,1.02513 1.02513,2.68718 0,3.71231c-1.02513,1.02513 -2.68718,1.02513 -3.71231,0c-1.02513,-1.02513 -1.02513,-2.68718 0,-3.71231c1.02513,-1.02513 2.68718,-1.02513 3.71231,-8.88178e-16"></path>
        <path d="M7.5,17.25l5.15143e-14,6.79481e-07c-3.75267e-07,-2.48528 2.01472,-4.5 4.5,-4.5c2.48528,-3.75267e-07 4.5,2.01472 4.5,4.5c0,0 0,3.55271e-15 0,3.55271e-15Z"></path>
        <path d="M3.75,20.25c-1.65684,0 -3,-1.34316 -3,-3v-10.5c0,-1.65684 1.34316,-3 3,-3h16.5c1.65684,0 3,1.34316 3,3v10.5c0,1.65684 -1.34316,3 -3,3Z"></path>
    </g>
</svg>