<?xml version="1.0" encoding="UTF-8"?>
<svg version="1.1" viewBox="0 0 24 24" xmlns="http://www.w3.org/2000/svg" xmlns:xlink="http://www.w3.org/1999/xlink">
    <!--Generated by IJSVG (https://github.com/iconjar/IJSVG)-->
    <path d="M15.04,22.39l0.012,0.007l3.08531e-07,1.96429e-07c2.18798,1.393 5.04995,1.07911 6.884,-0.755l0.774,-0.774l-1.23565e-08,1.23721e-08c0.719816,-0.72072 0.719816,-1.88828 2.47131e-08,-2.609l-3.261,-3.259l3.31308e-08,3.30893e-08c-0.72072,-0.719816 -1.88828,-0.719816 -2.609,-6.61786e-08v0l-4.75147e-10,4.7573e-10c-0.719293,0.720179 -1.88622,0.720898 -2.6064,0.0016049c-0.000535296,-0.000534637 -0.00107026,-0.0010696 -0.0016049,-0.0016049l-5.218,-5.219l5.3822e-08,5.38896e-08c-0.719816,-0.72072 -0.719816,-1.88828 -1.07644e-07,-2.609v0l2.12005e-08,-2.11744e-08c0.720179,-0.719293 0.720898,-1.88622 0.00160486,-2.6064c-0.000534637,-0.000535296 -0.0010696,-0.00107026 -0.0016049,-0.0016049l-3.26,-3.264l3.31308e-08,3.30893e-08c-0.72072,-0.719816 -1.88828,-0.719816 -2.609,-6.61786e-08l-0.774,0.774l-3.1361e-07,3.13683e-07c-1.83372,1.83414 -2.14796,4.69561 -0.755999,6.884l0.008,0.012l-2.42055e-06,-3.5832e-06c3.57341,5.28982 8.12797,9.8454 13.417,13.42Z" stroke-linecap="round" stroke-width="1.5" stroke="#FFF" fill="none" stroke-linejoin="round"></path>
</svg>