<svg id="icon" viewBox="0 0 35 35" xmlns="http://www.w3.org/2000/svg" fill-rule="evenodd" clip-rule="evenodd" stroke-linejoin="round" stroke-miterlimit="2">
    <path fill="none" d="M.002 0h34.1v34.1H.002z"/>
    <path d="M17.101 0c-7 0-12.7 5.5-12.7 12.3v18.3c0 1.9 1.6 3.5 3.5 3.5s3.5-1.6 3.5-3.5v-7.3c1.7.8 3.6 1.3 5.6 1.3 7 0 12.7-5.5 12.7-12.3 0-6.8-5.6-12.3-12.6-12.3zm-9.2 31.6c-.6 0-1-.5-1-1s.5-1 1-1 1 .5 1 1-.4 1-1 1zm1.1-4.3c-.3-.1-.7-.2-1-.2-.3 0-.7.1-1 .2v-7.6c.6.8 1.3 1.5 2 2.1v5.5zm8.1-5.2c-5.5 0-10-4.3-10.1-9.5v-.4c0-5.4 4.6-9.7 10.2-9.7s10.2 4.4 10.2 9.8c-.2 5.4-4.7 9.8-10.3 9.8zm0-17.4c-4.3 0-7.9 3.4-7.9 7.6 0 4.2 3.5 7.6 7.9 7.6s7.9-3.4 7.9-7.6c-.1-4.2-3.6-7.6-7.9-7.6zm0 12.8c-3 0-5.4-2.3-5.4-5.1s2.4-5.1 5.4-5.1c3 0 5.4 2.3 5.4 5.1-.1 2.8-2.5 5.1-5.4 5.1z" fill-rule="nonzero"/>
</svg>
